# xmcd
#
# Track frame offsets:
#	150
#	13922
#	24679
#	44559
#	59373
#	76501
#	86811
#	97883
#	110207
#	124668
#	139306
#	154349
#	167905
#	181988
#	197384
#	209379
#	218786
#	232550
#	250851
#	268328
#	282731
#	293946
#
# Disc length: 4109 seconds
#
# Revision: 0
# Processed by: cddbd v1.5.1PL0 Copyright (c) Steve Scherf et al.
# Submitted via: EasyCDDAExtractor 4.6.9.1
#
DISCID=48100b16
DTITLE=Martina McBride - Timeless - Target Version
DYEAR=2005
DGENRE=Country
TTITLE0=You Win Again
TTITLE1=I'll Be There
TTITLE2=I Can't Stop Loving You
TTITLE3=Rose Garden (I Never Promised You)
TTITLE4=Today I Started Loving You Again
TTITLE5=You Ain't Woman Enough
TTITLE6=Once A Day
TTITLE7=Pick Me Up On Your Way Down
TTITLE8=I Don't Hurt Anymore
TTITLE9=True Love Ways
TTITLE10=Til I Can Make It On My Own
TTITLE11=I Still Miss Someone
TTITLE12=Heartaches By The Number
TTITLE13=Satin Sheets
TTITLE14=Thanks A Lot
TTITLE15=Love's Gonna Live Here
TTITLE16=Make The World Go Away
TTITLE17=Help Me Make It Through The Night
TTITLE18=Dreaming My Dreams (Bonus Track)
TTITLE19=Cryin' Time (Bonus Track)
TTITLE20=Walk On By (Bonus Track)
TTITLE21=Take These Chains From My Heart (Bonus Track)
EXTD=
EXTT0=
EXTT1=
EXTT2=
EXTT3=
EXTT4=
EXTT5=
EXTT6=
EXTT7=
EXTT8=
EXTT9=
EXTT10=
EXTT11=
EXTT12=
EXTT13=
EXTT14=
EXTT15=
EXTT16=
EXTT17=
EXTT18=
EXTT19=
EXTT20=
EXTT21=
PLAYORDER=
